<svg xmlns="http://www.w3.org/2000/svg" width="2495.487" height="85.218" viewBox="0 0 2495.487 85.218">
  <defs>
    <style>
      .cls-1 {
        fill: #f5c7e7;
      }

      .cls-2 {
        fill: none;
      }
    </style>
  </defs>
  <g id="Group_11" data-name="Group 11" transform="translate(-2040 3431)">
    <g id="dessert-bg-pattern" transform="translate(2106 -3631)">
      <path id="Path_30" data-name="Path 30" class="cls-1" d="M117.283,100.446a57.3,57.3,0,0,0-106.735,0C1.11,100.81,0,108.748,0,110.635a10.228,10.228,0,0,0,10.257,10.177c.6,0,1.059-.133,1.624-.169l7.2,21.6a10.208,10.208,0,0,0,9.682,6.977H99.059a10.208,10.208,0,0,0,9.682-6.978l7.2-21.6c.564.038,1.021.169,1.624.169a10.228,10.228,0,0,0,10.264-10.177C127.827,108.688,126.684,100.839,117.283,100.446Zm-15.277,39.542a3.107,3.107,0,0,1-2.947,2.128H28.765a3.107,3.107,0,0,1-2.947-2.126l-6.937-20.814a28.2,28.2,0,0,0,6.48-3.7c2.017-1.5,2.8-2.093,5.639.013a23.992,23.992,0,0,0,30.168-.018c2.013-1.489,2.776-2.086,5.595.011a23.977,23.977,0,0,0,30.152-.013c2.415-1.791,3.134-1.82,5.575,0a28.164,28.164,0,0,0,6.453,3.7l-6.937,20.816Zm15.561-26.278c-5.535,0-8.475-2.184-10.854-3.952-6.593-4.882-11.109-2.15-14.03.013-2.361,1.755-5.3,3.939-10.845,3.939s-8.482-2.184-10.861-3.944c-7.062-5.255-11.873-1.609-14.048,0-2.366,1.76-5.306,3.944-10.854,3.944s-8.488-2.184-10.874-3.944c-1.5-1.11-6.593-5.548-14.085,0-2.37,1.753-5.326,3.937-10.874,3.937a3.078,3.078,0,1,1,0-6.156c1.2,0,2.459.107,5.936-1.813C28.013,71.576,60.3,71.1,63.913,71.1c3.551,0,35.889.444,47.713,34.62,3.5,1.977,4.565,1.844,5.943,1.844a3.078,3.078,0,1,1,0,6.156ZM44.2,82.129a3.566,3.566,0,0,0-4.765,1.589l-3.551,7.1a3.552,3.552,0,0,0,6.354,3.176l3.551-7.1A3.551,3.551,0,0,0,44.2,82.129Zm44.193,1.587a3.552,3.552,0,1,0-6.354,3.176l3.551,7.1a3.552,3.552,0,0,0,6.354-3.176ZM63.913,81.754A3.551,3.551,0,0,0,60.363,85.3v7.1a3.551,3.551,0,1,0,7.1,0V85.3A3.551,3.551,0,0,0,63.913,81.754Z" transform="translate(-66 136)"/>
      <path id="Path_31" data-name="Path 31" class="cls-1" d="M31.957,10.652c0-5.16,5.326-3.828,5.326-10.652,2,0,5.326,4.91,5.326,9.321s-2.372,6.658-5.326,6.658A5.31,5.31,0,0,1,31.957,10.652Zm26.631,5.326c2.954,0,5.326-2.247,5.326-6.658S60.585,0,58.587,0c0,6.824-5.326,5.493-5.326,10.652A5.31,5.31,0,0,0,58.587,15.978ZM74.566,45.272V85.218H0V45.272a7.991,7.991,0,0,1,7.989-7.989h3.995V18.641h7.989V37.283H33.288V18.641h7.989V37.283H54.593V18.641h7.989V37.283h3.995A7.991,7.991,0,0,1,74.566,45.272Zm-66.576,1V55.73c1.39,1.165,2.542,2.192,4.452,2.192,4.224,0,5.015-5.326,12.441-5.326,7.319,0,8.281,5.326,12.4,5.326,4.259,0,5-5.326,12.441-5.326,7.4,0,8.21,5.326,12.441,5.326,1.874,0,3.018-1.029,4.411-2.195V46.272a1,1,0,0,0-1-1H8.988A1,1,0,0,0,7.989,46.271ZM66.576,77.229V63.769a11.26,11.26,0,0,1-4.411.811c-7.414,0-8.22-5.326-12.441-5.326-4.185,0-5.048,5.326-12.441,5.326-7.319,0-8.281-5.326-12.4-5.326-4.259,0-5,5.326-12.441,5.326a11.359,11.359,0,0,1-4.452-.817V77.229Zm-50.6-61.25c2.954,0,5.326-2.247,5.326-6.658S17.976,0,15.978,0c0,6.824-5.326,5.493-5.326,10.652A5.31,5.31,0,0,0,15.978,15.978Z" transform="translate(177.577 200)"/>
      <path id="Path_32" data-name="Path 32" class="cls-1" d="M58.579,53.263a5.326,5.326,0,1,0,5.326,5.326A5.327,5.327,0,0,0,58.579,53.263ZM53.253,26.632a5.326,5.326,0,1,0-5.326-5.326A5.327,5.327,0,0,0,53.253,26.632ZM31.948,31.958a5.326,5.326,0,1,0-5.326,5.326A5.327,5.327,0,0,0,31.948,31.958Zm0,21.305a5.326,5.326,0,1,0,5.326,5.326A5.327,5.327,0,0,0,31.948,53.263ZM47.927,37.284a5.326,5.326,0,1,0,5.326,5.326A5.327,5.327,0,0,0,47.927,37.284ZM84.94,42.409,82.929,29.716a22.053,22.053,0,0,0-6.185-12.142L67.629,8.461a21.975,21.975,0,0,0-12.1-6.167L42.76.271a21.928,21.928,0,0,0-13.4,2.122l-11.5,5.861a22.013,22.013,0,0,0-9.619,9.621L2.393,29.338A22.071,22.071,0,0,0,.259,42.81L2.27,55.505A22.053,22.053,0,0,0,8.455,67.648l9.115,9.113a21.986,21.986,0,0,0,12.1,6.167l12.767,2.021a21.961,21.961,0,0,0,13.4-2.124l11.5-5.861a22.021,22.021,0,0,0,9.619-9.621L82.806,55.88A22.064,22.064,0,0,0,84.94,42.409Zm-9.253,9.845L69.844,63.719a13.919,13.919,0,0,1-6.127,6.129l-11.5,5.861a13.967,13.967,0,0,1-8.524,1.352L30.924,75.04a13.9,13.9,0,0,1-7.7-3.926L14.106,62a13.964,13.964,0,0,1-3.943-7.741L8.152,41.562a13.99,13.99,0,0,1,1.362-8.6L15.356,21.5a13.919,13.919,0,0,1,6.127-6.129l11.5-5.861a13.972,13.972,0,0,1,8.525-1.352L54.28,10.183a13.9,13.9,0,0,1,7.7,3.926L71.1,23.223a13.968,13.968,0,0,1,3.943,7.743L77.05,43.659a14,14,0,0,1-1.363,8.6Z" transform="translate(367.884 200)"/>
      <path id="Path_33" data-name="Path 33" class="cls-1" d="M57.985-53q0,9.346-11.712,19.072a97.29,97.29,0,0,1-20.211,12.5,23.657,23.657,0,0,0,.438-4.41,15.711,15.711,0,0,0-3.446-9.872q-3.213-3.563-6.455-7.1a14.849,14.849,0,0,1-3.446-9.463,11,11,0,0,1,3.4-8.309,11.789,11.789,0,0,1,8.485-3.257,12.2,12.2,0,0,1,6.455,1.811,8.724,8.724,0,0,1,4.118,5.17q3.563-6.98,10.515-6.98A12.1,12.1,0,0,1,54.3-60.795,9.929,9.929,0,0,1,57.985-53Z" transform="translate(84.04 285.128)"/>
      <path id="Path_34" data-name="Path 34" class="cls-1" d="M57.985-53q0,9.346-11.712,19.072a97.29,97.29,0,0,1-20.211,12.5,23.657,23.657,0,0,0,.438-4.41,15.711,15.711,0,0,0-3.446-9.872q-3.213-3.563-6.455-7.1a14.849,14.849,0,0,1-3.446-9.463,11,11,0,0,1,3.4-8.309,11.789,11.789,0,0,1,8.485-3.257,12.2,12.2,0,0,1,6.455,1.811,8.724,8.724,0,0,1,4.118,5.17q3.563-6.98,10.515-6.98A12.1,12.1,0,0,1,54.3-60.795,9.929,9.929,0,0,1,57.985-53Z" transform="translate(274.335 285.128)"/>
      <path id="Path_35" data-name="Path 35" class="cls-1" d="M57.985-53q0,9.346-11.712,19.072a97.29,97.29,0,0,1-20.211,12.5,23.657,23.657,0,0,0,.438-4.41,15.711,15.711,0,0,0-3.446-9.872q-3.213-3.563-6.455-7.1a14.849,14.849,0,0,1-3.446-9.463,11,11,0,0,1,3.4-8.309,11.789,11.789,0,0,1,8.485-3.257,12.2,12.2,0,0,1,6.455,1.811,8.724,8.724,0,0,1,4.118,5.17q3.563-6.98,10.515-6.98A12.1,12.1,0,0,1,54.3-60.795,9.929,9.929,0,0,1,57.985-53Z" transform="translate(475.335 285.128)"/>
    </g>
    <g id="dessert-bg-pattern-2" data-name="dessert-bg-pattern" transform="translate(2726 -3631)">
      <path id="Path_30-2" data-name="Path 30" class="cls-1" d="M117.283,100.446a57.3,57.3,0,0,0-106.735,0C1.11,100.81,0,108.748,0,110.635a10.228,10.228,0,0,0,10.257,10.177c.6,0,1.059-.133,1.624-.169l7.2,21.6a10.208,10.208,0,0,0,9.682,6.977H99.059a10.208,10.208,0,0,0,9.682-6.978l7.2-21.6c.564.038,1.021.169,1.624.169a10.228,10.228,0,0,0,10.264-10.177C127.827,108.688,126.684,100.839,117.283,100.446Zm-15.277,39.542a3.107,3.107,0,0,1-2.947,2.128H28.765a3.107,3.107,0,0,1-2.947-2.126l-6.937-20.814a28.2,28.2,0,0,0,6.48-3.7c2.017-1.5,2.8-2.093,5.639.013a23.992,23.992,0,0,0,30.168-.018c2.013-1.489,2.776-2.086,5.595.011a23.977,23.977,0,0,0,30.152-.013c2.415-1.791,3.134-1.82,5.575,0a28.164,28.164,0,0,0,6.453,3.7l-6.937,20.816Zm15.561-26.278c-5.535,0-8.475-2.184-10.854-3.952-6.593-4.882-11.109-2.15-14.03.013-2.361,1.755-5.3,3.939-10.845,3.939s-8.482-2.184-10.861-3.944c-7.062-5.255-11.873-1.609-14.048,0-2.366,1.76-5.306,3.944-10.854,3.944s-8.488-2.184-10.874-3.944c-1.5-1.11-6.593-5.548-14.085,0-2.37,1.753-5.326,3.937-10.874,3.937a3.078,3.078,0,1,1,0-6.156c1.2,0,2.459.107,5.936-1.813C28.013,71.576,60.3,71.1,63.913,71.1c3.551,0,35.889.444,47.713,34.62,3.5,1.977,4.565,1.844,5.943,1.844a3.078,3.078,0,1,1,0,6.156ZM44.2,82.129a3.566,3.566,0,0,0-4.765,1.589l-3.551,7.1a3.552,3.552,0,0,0,6.354,3.176l3.551-7.1A3.551,3.551,0,0,0,44.2,82.129Zm44.193,1.587a3.552,3.552,0,1,0-6.354,3.176l3.551,7.1a3.552,3.552,0,0,0,6.354-3.176ZM63.913,81.754A3.551,3.551,0,0,0,60.363,85.3v7.1a3.551,3.551,0,1,0,7.1,0V85.3A3.551,3.551,0,0,0,63.913,81.754Z" transform="translate(-66 136)"/>
      <path id="Path_31-2" data-name="Path 31" class="cls-1" d="M31.957,10.652c0-5.16,5.326-3.828,5.326-10.652,2,0,5.326,4.91,5.326,9.321s-2.372,6.658-5.326,6.658A5.31,5.31,0,0,1,31.957,10.652Zm26.631,5.326c2.954,0,5.326-2.247,5.326-6.658S60.585,0,58.587,0c0,6.824-5.326,5.493-5.326,10.652A5.31,5.31,0,0,0,58.587,15.978ZM74.566,45.272V85.218H0V45.272a7.991,7.991,0,0,1,7.989-7.989h3.995V18.641h7.989V37.283H33.288V18.641h7.989V37.283H54.593V18.641h7.989V37.283h3.995A7.991,7.991,0,0,1,74.566,45.272Zm-66.576,1V55.73c1.39,1.165,2.542,2.192,4.452,2.192,4.224,0,5.015-5.326,12.441-5.326,7.319,0,8.281,5.326,12.4,5.326,4.259,0,5-5.326,12.441-5.326,7.4,0,8.21,5.326,12.441,5.326,1.874,0,3.018-1.029,4.411-2.195V46.272a1,1,0,0,0-1-1H8.988A1,1,0,0,0,7.989,46.271ZM66.576,77.229V63.769a11.26,11.26,0,0,1-4.411.811c-7.414,0-8.22-5.326-12.441-5.326-4.185,0-5.048,5.326-12.441,5.326-7.319,0-8.281-5.326-12.4-5.326-4.259,0-5,5.326-12.441,5.326a11.359,11.359,0,0,1-4.452-.817V77.229Zm-50.6-61.25c2.954,0,5.326-2.247,5.326-6.658S17.976,0,15.978,0c0,6.824-5.326,5.493-5.326,10.652A5.31,5.31,0,0,0,15.978,15.978Z" transform="translate(177.577 200)"/>
      <path id="Path_32-2" data-name="Path 32" class="cls-1" d="M58.579,53.263a5.326,5.326,0,1,0,5.326,5.326A5.327,5.327,0,0,0,58.579,53.263ZM53.253,26.632a5.326,5.326,0,1,0-5.326-5.326A5.327,5.327,0,0,0,53.253,26.632ZM31.948,31.958a5.326,5.326,0,1,0-5.326,5.326A5.327,5.327,0,0,0,31.948,31.958Zm0,21.305a5.326,5.326,0,1,0,5.326,5.326A5.327,5.327,0,0,0,31.948,53.263ZM47.927,37.284a5.326,5.326,0,1,0,5.326,5.326A5.327,5.327,0,0,0,47.927,37.284ZM84.94,42.409,82.929,29.716a22.053,22.053,0,0,0-6.185-12.142L67.629,8.461a21.975,21.975,0,0,0-12.1-6.167L42.76.271a21.928,21.928,0,0,0-13.4,2.122l-11.5,5.861a22.013,22.013,0,0,0-9.619,9.621L2.393,29.338A22.071,22.071,0,0,0,.259,42.81L2.27,55.505A22.053,22.053,0,0,0,8.455,67.648l9.115,9.113a21.986,21.986,0,0,0,12.1,6.167l12.767,2.021a21.961,21.961,0,0,0,13.4-2.124l11.5-5.861a22.021,22.021,0,0,0,9.619-9.621L82.806,55.88A22.064,22.064,0,0,0,84.94,42.409Zm-9.253,9.845L69.844,63.719a13.919,13.919,0,0,1-6.127,6.129l-11.5,5.861a13.967,13.967,0,0,1-8.524,1.352L30.924,75.04a13.9,13.9,0,0,1-7.7-3.926L14.106,62a13.964,13.964,0,0,1-3.943-7.741L8.152,41.562a13.99,13.99,0,0,1,1.362-8.6L15.356,21.5a13.919,13.919,0,0,1,6.127-6.129l11.5-5.861a13.972,13.972,0,0,1,8.525-1.352L54.28,10.183a13.9,13.9,0,0,1,7.7,3.926L71.1,23.223a13.968,13.968,0,0,1,3.943,7.743L77.05,43.659a14,14,0,0,1-1.363,8.6Z" transform="translate(367.884 200)"/>
      <path id="Path_33-2" data-name="Path 33" class="cls-1" d="M57.985-53q0,9.346-11.712,19.072a97.29,97.29,0,0,1-20.211,12.5,23.657,23.657,0,0,0,.438-4.41,15.711,15.711,0,0,0-3.446-9.872q-3.213-3.563-6.455-7.1a14.849,14.849,0,0,1-3.446-9.463,11,11,0,0,1,3.4-8.309,11.789,11.789,0,0,1,8.485-3.257,12.2,12.2,0,0,1,6.455,1.811,8.724,8.724,0,0,1,4.118,5.17q3.563-6.98,10.515-6.98A12.1,12.1,0,0,1,54.3-60.795,9.929,9.929,0,0,1,57.985-53Z" transform="translate(84.04 285.128)"/>
      <path id="Path_34-2" data-name="Path 34" class="cls-1" d="M57.985-53q0,9.346-11.712,19.072a97.29,97.29,0,0,1-20.211,12.5,23.657,23.657,0,0,0,.438-4.41,15.711,15.711,0,0,0-3.446-9.872q-3.213-3.563-6.455-7.1a14.849,14.849,0,0,1-3.446-9.463,11,11,0,0,1,3.4-8.309,11.789,11.789,0,0,1,8.485-3.257,12.2,12.2,0,0,1,6.455,1.811,8.724,8.724,0,0,1,4.118,5.17q3.563-6.98,10.515-6.98A12.1,12.1,0,0,1,54.3-60.795,9.929,9.929,0,0,1,57.985-53Z" transform="translate(274.335 285.128)"/>
      <path id="Path_35-2" data-name="Path 35" class="cls-1" d="M57.985-53q0,9.346-11.712,19.072a97.29,97.29,0,0,1-20.211,12.5,23.657,23.657,0,0,0,.438-4.41,15.711,15.711,0,0,0-3.446-9.872q-3.213-3.563-6.455-7.1a14.849,14.849,0,0,1-3.446-9.463,11,11,0,0,1,3.4-8.309,11.789,11.789,0,0,1,8.485-3.257,12.2,12.2,0,0,1,6.455,1.811,8.724,8.724,0,0,1,4.118,5.17q3.563-6.98,10.515-6.98A12.1,12.1,0,0,1,54.3-60.795,9.929,9.929,0,0,1,57.985-53Z" transform="translate(475.335 285.128)"/>
    </g>
    <g id="dessert-bg-pattern-3" data-name="dessert-bg-pattern" transform="translate(3346 -3631)">
      <path id="Path_30-3" data-name="Path 30" class="cls-1" d="M117.283,100.446a57.3,57.3,0,0,0-106.735,0C1.11,100.81,0,108.748,0,110.635a10.228,10.228,0,0,0,10.257,10.177c.6,0,1.059-.133,1.624-.169l7.2,21.6a10.208,10.208,0,0,0,9.682,6.977H99.059a10.208,10.208,0,0,0,9.682-6.978l7.2-21.6c.564.038,1.021.169,1.624.169a10.228,10.228,0,0,0,10.264-10.177C127.827,108.688,126.684,100.839,117.283,100.446Zm-15.277,39.542a3.107,3.107,0,0,1-2.947,2.128H28.765a3.107,3.107,0,0,1-2.947-2.126l-6.937-20.814a28.2,28.2,0,0,0,6.48-3.7c2.017-1.5,2.8-2.093,5.639.013a23.992,23.992,0,0,0,30.168-.018c2.013-1.489,2.776-2.086,5.595.011a23.977,23.977,0,0,0,30.152-.013c2.415-1.791,3.134-1.82,5.575,0a28.164,28.164,0,0,0,6.453,3.7l-6.937,20.816Zm15.561-26.278c-5.535,0-8.475-2.184-10.854-3.952-6.593-4.882-11.109-2.15-14.03.013-2.361,1.755-5.3,3.939-10.845,3.939s-8.482-2.184-10.861-3.944c-7.062-5.255-11.873-1.609-14.048,0-2.366,1.76-5.306,3.944-10.854,3.944s-8.488-2.184-10.874-3.944c-1.5-1.11-6.593-5.548-14.085,0-2.37,1.753-5.326,3.937-10.874,3.937a3.078,3.078,0,1,1,0-6.156c1.2,0,2.459.107,5.936-1.813C28.013,71.576,60.3,71.1,63.913,71.1c3.551,0,35.889.444,47.713,34.62,3.5,1.977,4.565,1.844,5.943,1.844a3.078,3.078,0,1,1,0,6.156ZM44.2,82.129a3.566,3.566,0,0,0-4.765,1.589l-3.551,7.1a3.552,3.552,0,0,0,6.354,3.176l3.551-7.1A3.551,3.551,0,0,0,44.2,82.129Zm44.193,1.587a3.552,3.552,0,1,0-6.354,3.176l3.551,7.1a3.552,3.552,0,0,0,6.354-3.176ZM63.913,81.754A3.551,3.551,0,0,0,60.363,85.3v7.1a3.551,3.551,0,1,0,7.1,0V85.3A3.551,3.551,0,0,0,63.913,81.754Z" transform="translate(-66 136)"/>
      <path id="Path_31-3" data-name="Path 31" class="cls-1" d="M31.957,10.652c0-5.16,5.326-3.828,5.326-10.652,2,0,5.326,4.91,5.326,9.321s-2.372,6.658-5.326,6.658A5.31,5.31,0,0,1,31.957,10.652Zm26.631,5.326c2.954,0,5.326-2.247,5.326-6.658S60.585,0,58.587,0c0,6.824-5.326,5.493-5.326,10.652A5.31,5.31,0,0,0,58.587,15.978ZM74.566,45.272V85.218H0V45.272a7.991,7.991,0,0,1,7.989-7.989h3.995V18.641h7.989V37.283H33.288V18.641h7.989V37.283H54.593V18.641h7.989V37.283h3.995A7.991,7.991,0,0,1,74.566,45.272Zm-66.576,1V55.73c1.39,1.165,2.542,2.192,4.452,2.192,4.224,0,5.015-5.326,12.441-5.326,7.319,0,8.281,5.326,12.4,5.326,4.259,0,5-5.326,12.441-5.326,7.4,0,8.21,5.326,12.441,5.326,1.874,0,3.018-1.029,4.411-2.195V46.272a1,1,0,0,0-1-1H8.988A1,1,0,0,0,7.989,46.271ZM66.576,77.229V63.769a11.26,11.26,0,0,1-4.411.811c-7.414,0-8.22-5.326-12.441-5.326-4.185,0-5.048,5.326-12.441,5.326-7.319,0-8.281-5.326-12.4-5.326-4.259,0-5,5.326-12.441,5.326a11.359,11.359,0,0,1-4.452-.817V77.229Zm-50.6-61.25c2.954,0,5.326-2.247,5.326-6.658S17.976,0,15.978,0c0,6.824-5.326,5.493-5.326,10.652A5.31,5.31,0,0,0,15.978,15.978Z" transform="translate(177.577 200)"/>
      <path id="Path_32-3" data-name="Path 32" class="cls-1" d="M58.579,53.263a5.326,5.326,0,1,0,5.326,5.326A5.327,5.327,0,0,0,58.579,53.263ZM53.253,26.632a5.326,5.326,0,1,0-5.326-5.326A5.327,5.327,0,0,0,53.253,26.632ZM31.948,31.958a5.326,5.326,0,1,0-5.326,5.326A5.327,5.327,0,0,0,31.948,31.958Zm0,21.305a5.326,5.326,0,1,0,5.326,5.326A5.327,5.327,0,0,0,31.948,53.263ZM47.927,37.284a5.326,5.326,0,1,0,5.326,5.326A5.327,5.327,0,0,0,47.927,37.284ZM84.94,42.409,82.929,29.716a22.053,22.053,0,0,0-6.185-12.142L67.629,8.461a21.975,21.975,0,0,0-12.1-6.167L42.76.271a21.928,21.928,0,0,0-13.4,2.122l-11.5,5.861a22.013,22.013,0,0,0-9.619,9.621L2.393,29.338A22.071,22.071,0,0,0,.259,42.81L2.27,55.505A22.053,22.053,0,0,0,8.455,67.648l9.115,9.113a21.986,21.986,0,0,0,12.1,6.167l12.767,2.021a21.961,21.961,0,0,0,13.4-2.124l11.5-5.861a22.021,22.021,0,0,0,9.619-9.621L82.806,55.88A22.064,22.064,0,0,0,84.94,42.409Zm-9.253,9.845L69.844,63.719a13.919,13.919,0,0,1-6.127,6.129l-11.5,5.861a13.967,13.967,0,0,1-8.524,1.352L30.924,75.04a13.9,13.9,0,0,1-7.7-3.926L14.106,62a13.964,13.964,0,0,1-3.943-7.741L8.152,41.562a13.99,13.99,0,0,1,1.362-8.6L15.356,21.5a13.919,13.919,0,0,1,6.127-6.129l11.5-5.861a13.972,13.972,0,0,1,8.525-1.352L54.28,10.183a13.9,13.9,0,0,1,7.7,3.926L71.1,23.223a13.968,13.968,0,0,1,3.943,7.743L77.05,43.659a14,14,0,0,1-1.363,8.6Z" transform="translate(367.884 200)"/>
      <path id="Path_33-3" data-name="Path 33" class="cls-1" d="M57.985-53q0,9.346-11.712,19.072a97.29,97.29,0,0,1-20.211,12.5,23.657,23.657,0,0,0,.438-4.41,15.711,15.711,0,0,0-3.446-9.872q-3.213-3.563-6.455-7.1a14.849,14.849,0,0,1-3.446-9.463,11,11,0,0,1,3.4-8.309,11.789,11.789,0,0,1,8.485-3.257,12.2,12.2,0,0,1,6.455,1.811,8.724,8.724,0,0,1,4.118,5.17q3.563-6.98,10.515-6.98A12.1,12.1,0,0,1,54.3-60.795,9.929,9.929,0,0,1,57.985-53Z" transform="translate(84.04 285.128)"/>
      <path id="Path_34-3" data-name="Path 34" class="cls-1" d="M57.985-53q0,9.346-11.712,19.072a97.29,97.29,0,0,1-20.211,12.5,23.657,23.657,0,0,0,.438-4.41,15.711,15.711,0,0,0-3.446-9.872q-3.213-3.563-6.455-7.1a14.849,14.849,0,0,1-3.446-9.463,11,11,0,0,1,3.4-8.309,11.789,11.789,0,0,1,8.485-3.257,12.2,12.2,0,0,1,6.455,1.811,8.724,8.724,0,0,1,4.118,5.17q3.563-6.98,10.515-6.98A12.1,12.1,0,0,1,54.3-60.795,9.929,9.929,0,0,1,57.985-53Z" transform="translate(274.335 285.128)"/>
      <path id="Path_35-3" data-name="Path 35" class="cls-1" d="M57.985-53q0,9.346-11.712,19.072a97.29,97.29,0,0,1-20.211,12.5,23.657,23.657,0,0,0,.438-4.41,15.711,15.711,0,0,0-3.446-9.872q-3.213-3.563-6.455-7.1a14.849,14.849,0,0,1-3.446-9.463,11,11,0,0,1,3.4-8.309,11.789,11.789,0,0,1,8.485-3.257,12.2,12.2,0,0,1,6.455,1.811,8.724,8.724,0,0,1,4.118,5.17q3.563-6.98,10.515-6.98A12.1,12.1,0,0,1,54.3-60.795,9.929,9.929,0,0,1,57.985-53Z" transform="translate(475.335 285.128)"/>
    </g>
    <g id="dessert-bg-pattern-4" data-name="dessert-bg-pattern" transform="translate(3966 -3631)">
      <path id="Path_30-4" data-name="Path 30" class="cls-1" d="M117.283,100.446a57.3,57.3,0,0,0-106.735,0C1.11,100.81,0,108.748,0,110.635a10.228,10.228,0,0,0,10.257,10.177c.6,0,1.059-.133,1.624-.169l7.2,21.6a10.208,10.208,0,0,0,9.682,6.977H99.059a10.208,10.208,0,0,0,9.682-6.978l7.2-21.6c.564.038,1.021.169,1.624.169a10.228,10.228,0,0,0,10.264-10.177C127.827,108.688,126.684,100.839,117.283,100.446Zm-15.277,39.542a3.107,3.107,0,0,1-2.947,2.128H28.765a3.107,3.107,0,0,1-2.947-2.126l-6.937-20.814a28.2,28.2,0,0,0,6.48-3.7c2.017-1.5,2.8-2.093,5.639.013a23.992,23.992,0,0,0,30.168-.018c2.013-1.489,2.776-2.086,5.595.011a23.977,23.977,0,0,0,30.152-.013c2.415-1.791,3.134-1.82,5.575,0a28.164,28.164,0,0,0,6.453,3.7l-6.937,20.816Zm15.561-26.278c-5.535,0-8.475-2.184-10.854-3.952-6.593-4.882-11.109-2.15-14.03.013-2.361,1.755-5.3,3.939-10.845,3.939s-8.482-2.184-10.861-3.944c-7.062-5.255-11.873-1.609-14.048,0-2.366,1.76-5.306,3.944-10.854,3.944s-8.488-2.184-10.874-3.944c-1.5-1.11-6.593-5.548-14.085,0-2.37,1.753-5.326,3.937-10.874,3.937a3.078,3.078,0,1,1,0-6.156c1.2,0,2.459.107,5.936-1.813C28.013,71.576,60.3,71.1,63.913,71.1c3.551,0,35.889.444,47.713,34.62,3.5,1.977,4.565,1.844,5.943,1.844a3.078,3.078,0,1,1,0,6.156ZM44.2,82.129a3.566,3.566,0,0,0-4.765,1.589l-3.551,7.1a3.552,3.552,0,0,0,6.354,3.176l3.551-7.1A3.551,3.551,0,0,0,44.2,82.129Zm44.193,1.587a3.552,3.552,0,1,0-6.354,3.176l3.551,7.1a3.552,3.552,0,0,0,6.354-3.176ZM63.913,81.754A3.551,3.551,0,0,0,60.363,85.3v7.1a3.551,3.551,0,1,0,7.1,0V85.3A3.551,3.551,0,0,0,63.913,81.754Z" transform="translate(-66 136)"/>
      <path id="Path_31-4" data-name="Path 31" class="cls-1" d="M31.957,10.652c0-5.16,5.326-3.828,5.326-10.652,2,0,5.326,4.91,5.326,9.321s-2.372,6.658-5.326,6.658A5.31,5.31,0,0,1,31.957,10.652Zm26.631,5.326c2.954,0,5.326-2.247,5.326-6.658S60.585,0,58.587,0c0,6.824-5.326,5.493-5.326,10.652A5.31,5.31,0,0,0,58.587,15.978ZM74.566,45.272V85.218H0V45.272a7.991,7.991,0,0,1,7.989-7.989h3.995V18.641h7.989V37.283H33.288V18.641h7.989V37.283H54.593V18.641h7.989V37.283h3.995A7.991,7.991,0,0,1,74.566,45.272Zm-66.576,1V55.73c1.39,1.165,2.542,2.192,4.452,2.192,4.224,0,5.015-5.326,12.441-5.326,7.319,0,8.281,5.326,12.4,5.326,4.259,0,5-5.326,12.441-5.326,7.4,0,8.21,5.326,12.441,5.326,1.874,0,3.018-1.029,4.411-2.195V46.272a1,1,0,0,0-1-1H8.988A1,1,0,0,0,7.989,46.271ZM66.576,77.229V63.769a11.26,11.26,0,0,1-4.411.811c-7.414,0-8.22-5.326-12.441-5.326-4.185,0-5.048,5.326-12.441,5.326-7.319,0-8.281-5.326-12.4-5.326-4.259,0-5,5.326-12.441,5.326a11.359,11.359,0,0,1-4.452-.817V77.229Zm-50.6-61.25c2.954,0,5.326-2.247,5.326-6.658S17.976,0,15.978,0c0,6.824-5.326,5.493-5.326,10.652A5.31,5.31,0,0,0,15.978,15.978Z" transform="translate(177.577 200)"/>
      <path id="Path_32-4" data-name="Path 32" class="cls-1" d="M58.579,53.263a5.326,5.326,0,1,0,5.326,5.326A5.327,5.327,0,0,0,58.579,53.263ZM53.253,26.632a5.326,5.326,0,1,0-5.326-5.326A5.327,5.327,0,0,0,53.253,26.632ZM31.948,31.958a5.326,5.326,0,1,0-5.326,5.326A5.327,5.327,0,0,0,31.948,31.958Zm0,21.305a5.326,5.326,0,1,0,5.326,5.326A5.327,5.327,0,0,0,31.948,53.263ZM47.927,37.284a5.326,5.326,0,1,0,5.326,5.326A5.327,5.327,0,0,0,47.927,37.284ZM84.94,42.409,82.929,29.716a22.053,22.053,0,0,0-6.185-12.142L67.629,8.461a21.975,21.975,0,0,0-12.1-6.167L42.76.271a21.928,21.928,0,0,0-13.4,2.122l-11.5,5.861a22.013,22.013,0,0,0-9.619,9.621L2.393,29.338A22.071,22.071,0,0,0,.259,42.81L2.27,55.505A22.053,22.053,0,0,0,8.455,67.648l9.115,9.113a21.986,21.986,0,0,0,12.1,6.167l12.767,2.021a21.961,21.961,0,0,0,13.4-2.124l11.5-5.861a22.021,22.021,0,0,0,9.619-9.621L82.806,55.88A22.064,22.064,0,0,0,84.94,42.409Zm-9.253,9.845L69.844,63.719a13.919,13.919,0,0,1-6.127,6.129l-11.5,5.861a13.967,13.967,0,0,1-8.524,1.352L30.924,75.04a13.9,13.9,0,0,1-7.7-3.926L14.106,62a13.964,13.964,0,0,1-3.943-7.741L8.152,41.562a13.99,13.99,0,0,1,1.362-8.6L15.356,21.5a13.919,13.919,0,0,1,6.127-6.129l11.5-5.861a13.972,13.972,0,0,1,8.525-1.352L54.28,10.183a13.9,13.9,0,0,1,7.7,3.926L71.1,23.223a13.968,13.968,0,0,1,3.943,7.743L77.05,43.659a14,14,0,0,1-1.363,8.6Z" transform="translate(367.884 200)"/>
      <path id="Path_33-4" data-name="Path 33" class="cls-1" d="M57.985-53q0,9.346-11.712,19.072a97.29,97.29,0,0,1-20.211,12.5,23.657,23.657,0,0,0,.438-4.41,15.711,15.711,0,0,0-3.446-9.872q-3.213-3.563-6.455-7.1a14.849,14.849,0,0,1-3.446-9.463,11,11,0,0,1,3.4-8.309,11.789,11.789,0,0,1,8.485-3.257,12.2,12.2,0,0,1,6.455,1.811,8.724,8.724,0,0,1,4.118,5.17q3.563-6.98,10.515-6.98A12.1,12.1,0,0,1,54.3-60.795,9.929,9.929,0,0,1,57.985-53Z" transform="translate(84.04 285.128)"/>
      <path id="Path_34-4" data-name="Path 34" class="cls-1" d="M57.985-53q0,9.346-11.712,19.072a97.29,97.29,0,0,1-20.211,12.5,23.657,23.657,0,0,0,.438-4.41,15.711,15.711,0,0,0-3.446-9.872q-3.213-3.563-6.455-7.1a14.849,14.849,0,0,1-3.446-9.463,11,11,0,0,1,3.4-8.309,11.789,11.789,0,0,1,8.485-3.257,12.2,12.2,0,0,1,6.455,1.811,8.724,8.724,0,0,1,4.118,5.17q3.563-6.98,10.515-6.98A12.1,12.1,0,0,1,54.3-60.795,9.929,9.929,0,0,1,57.985-53Z" transform="translate(274.335 285.128)"/>
      <path id="Path_35-4" data-name="Path 35" class="cls-1" d="M57.985-53q0,9.346-11.712,19.072a97.29,97.29,0,0,1-20.211,12.5,23.657,23.657,0,0,0,.438-4.41,15.711,15.711,0,0,0-3.446-9.872q-3.213-3.563-6.455-7.1a14.849,14.849,0,0,1-3.446-9.463,11,11,0,0,1,3.4-8.309,11.789,11.789,0,0,1,8.485-3.257,12.2,12.2,0,0,1,6.455,1.811,8.724,8.724,0,0,1,4.118,5.17q3.563-6.98,10.515-6.98A12.1,12.1,0,0,1,54.3-60.795,9.929,9.929,0,0,1,57.985-53Z" transform="translate(475.335 285.128)"/>
      <path id="Path_42" data-name="Path 42" class="cls-2" d="M14.152-53q0,9.346-.261,19.072-.182,6.747-.451,12.5.01-2.307.01-4.41,0-5.432-.077-9.872-.072-3.563-.144-7.1-.077-4.323-.077-9.463,0-5.053.076-8.309a17.725,17.725,0,0,1,.189-3.257,8.074,8.074,0,0,1,.144,1.811q.072,1.986.092,5.17a59.148,59.148,0,0,1,.235-6.98,16.775,16.775,0,0,1,.182,3.038Q14.152-57.611,14.152-53Z" transform="translate(555.335 285.128)"/>
    </g>
  </g>
</svg>
