<svg xmlns="http://www.w3.org/2000/svg" width="2005" height="3200" viewBox="0 0 2005 3200"><defs><style>.a{fill:#f5c73d;}</style></defs><g transform="translate(52 -104)"><g transform="translate(-7960 1093)"><circle class="a" cx="72.5" cy="72.5" r="72.5" transform="translate(7995 -966)"/><circle class="a" cx="125" cy="125" r="125" transform="translate(8446 -816)"/><circle class="a" cx="59.5" cy="59.5" r="59.5" transform="translate(8191 -736)"/><circle class="a" cx="72.5" cy="72.5" r="72.5" transform="translate(8775 -989)"/><circle class="a" cx="50" cy="50" r="50" transform="translate(8284 -944)"/><circle class="a" cx="89.5" cy="89.5" r="89.5" transform="translate(9646 -738)"/><circle class="a" cx="171" cy="171" r="171" transform="translate(8867 -891)"/><circle class="a" cx="25" cy="25" r="25" transform="translate(8646 -916)"/><circle class="a" cx="73.5" cy="73.5" r="73.5" transform="translate(7908 -706)"/><circle class="a" cx="131.5" cy="131.5" r="131.5" transform="translate(9412 -986)"/><circle class="a" cx="66.5" cy="66.5" r="66.5" transform="translate(9160 -977)"/><circle class="a" cx="23" cy="23" r="23" transform="translate(9464 -640)"/><circle class="a" cx="22" cy="22" r="22" transform="translate(8087 -799)"/><circle class="a" cx="59.5" cy="59.5" r="59.5" transform="translate(9293 -777)"/><circle class="a" cx="59.5" cy="59.5" r="59.5" transform="translate(9794 -985)"/></g><g transform="translate(-52 564)"><circle class="a" cx="72.5" cy="72.5" r="72.5" transform="translate(1773 23)"/><circle class="a" cx="125" cy="125" r="125" transform="translate(1217 173)"/><circle class="a" cx="59.5" cy="59.5" r="59.5" transform="translate(1603 253)"/><circle class="a" cx="72.5" cy="72.5" r="72.5" transform="translate(993)"/><circle class="a" cx="50" cy="50" r="50" transform="translate(1529 45)"/><circle class="a" cx="89.5" cy="89.5" r="89.5" transform="translate(88 251)"/><circle class="a" cx="171" cy="171" r="171" transform="translate(704 98)"/><circle class="a" cx="25" cy="25" r="25" transform="translate(1217 73)"/><circle class="a" cx="73.5" cy="73.5" r="73.5" transform="translate(1858 283)"/><circle class="a" cx="131.5" cy="131.5" r="131.5" transform="translate(238 3)"/><circle class="a" cx="66.5" cy="66.5" r="66.5" transform="translate(620 12)"/><circle class="a" cx="23" cy="23" r="23" transform="translate(403 349)"/><circle class="a" cx="22" cy="22" r="22" transform="translate(1782 190)"/><circle class="a" cx="59.5" cy="59.5" r="59.5" transform="translate(501 212)"/><circle class="a" cx="59.5" cy="59.5" r="59.5" transform="translate(0 4)"/></g><g transform="translate(-7960 2013)"><circle class="a" cx="72.5" cy="72.5" r="72.5" transform="translate(7995 -966)"/><circle class="a" cx="125" cy="125" r="125" transform="translate(8446 -816)"/><circle class="a" cx="59.5" cy="59.5" r="59.5" transform="translate(8191 -736)"/><circle class="a" cx="72.5" cy="72.5" r="72.5" transform="translate(8775 -989)"/><circle class="a" cx="50" cy="50" r="50" transform="translate(8284 -944)"/><circle class="a" cx="89.5" cy="89.5" r="89.5" transform="translate(9646 -738)"/><circle class="a" cx="171" cy="171" r="171" transform="translate(8867 -891)"/><circle class="a" cx="25" cy="25" r="25" transform="translate(8646 -916)"/><circle class="a" cx="73.5" cy="73.5" r="73.5" transform="translate(7908 -706)"/><circle class="a" cx="131.5" cy="131.5" r="131.5" transform="translate(9412 -986)"/><circle class="a" cx="66.5" cy="66.5" r="66.5" transform="translate(9160 -977)"/><circle class="a" cx="23" cy="23" r="23" transform="translate(9464 -640)"/><circle class="a" cx="22" cy="22" r="22" transform="translate(8087 -799)"/><circle class="a" cx="59.5" cy="59.5" r="59.5" transform="translate(9293 -777)"/><circle class="a" cx="59.5" cy="59.5" r="59.5" transform="translate(9794 -985)"/></g><g transform="translate(-52 1484)"><circle class="a" cx="72.5" cy="72.5" r="72.5" transform="translate(1773 272)"/><circle class="a" cx="125" cy="125" r="125" transform="translate(1217 17)"/><circle class="a" cx="59.5" cy="59.5" r="59.5" transform="translate(1603 68)"/><circle class="a" cx="72.5" cy="72.5" r="72.5" transform="translate(993 295)"/><circle class="a" cx="50" cy="50" r="50" transform="translate(1529 295)"/><circle class="a" cx="89.5" cy="89.5" r="89.5" transform="translate(88 10)"/><circle class="a" cx="171" cy="171" r="171" transform="translate(704)"/><circle class="a" cx="25" cy="25" r="25" transform="translate(1217 317)"/><circle class="a" cx="73.5" cy="73.5" r="73.5" transform="translate(1858 10)"/><circle class="a" cx="131.5" cy="131.5" r="131.5" transform="translate(238 174)"/><circle class="a" cx="66.5" cy="66.5" r="66.5" transform="translate(620 295)"/><circle class="a" cx="23" cy="23" r="23" transform="translate(403 45)"/><circle class="a" cx="22" cy="22" r="22" transform="translate(1782 206)"/><circle class="a" cx="59.5" cy="59.5" r="59.5" transform="translate(501 109)"/><circle class="a" cx="59.5" cy="59.5" r="59.5" transform="translate(0 317)"/></g><g transform="translate(-7960 2933)"><circle class="a" cx="72.5" cy="72.5" r="72.5" transform="translate(7995 -966)"/><circle class="a" cx="125" cy="125" r="125" transform="translate(8446 -816)"/><circle class="a" cx="59.5" cy="59.5" r="59.5" transform="translate(8191 -736)"/><circle class="a" cx="72.5" cy="72.5" r="72.5" transform="translate(8775 -989)"/><circle class="a" cx="50" cy="50" r="50" transform="translate(8284 -944)"/><circle class="a" cx="89.5" cy="89.5" r="89.5" transform="translate(9646 -738)"/><circle class="a" cx="171" cy="171" r="171" transform="translate(8867 -891)"/><circle class="a" cx="25" cy="25" r="25" transform="translate(8646 -916)"/><circle class="a" cx="73.5" cy="73.5" r="73.5" transform="translate(7908 -706)"/><circle class="a" cx="131.5" cy="131.5" r="131.5" transform="translate(9412 -986)"/><circle class="a" cx="66.5" cy="66.5" r="66.5" transform="translate(9160 -977)"/><circle class="a" cx="23" cy="23" r="23" transform="translate(9464 -640)"/><circle class="a" cx="22" cy="22" r="22" transform="translate(8087 -799)"/><circle class="a" cx="59.5" cy="59.5" r="59.5" transform="translate(9293 -777)"/><circle class="a" cx="59.5" cy="59.5" r="59.5" transform="translate(9794 -985)"/></g><g transform="translate(-52 2404)"><circle class="a" cx="72.5" cy="72.5" r="72.5" transform="translate(1773 272)"/><circle class="a" cx="125" cy="125" r="125" transform="translate(1217 17)"/><circle class="a" cx="59.5" cy="59.5" r="59.5" transform="translate(1603 68)"/><circle class="a" cx="72.5" cy="72.5" r="72.5" transform="translate(993 295)"/><circle class="a" cx="50" cy="50" r="50" transform="translate(1529 295)"/><circle class="a" cx="89.5" cy="89.5" r="89.5" transform="translate(88 10)"/><circle class="a" cx="171" cy="171" r="171" transform="translate(704)"/><circle class="a" cx="25" cy="25" r="25" transform="translate(1217 317)"/><circle class="a" cx="73.5" cy="73.5" r="73.5" transform="translate(1858 10)"/><circle class="a" cx="131.5" cy="131.5" r="131.5" transform="translate(238 174)"/><circle class="a" cx="66.5" cy="66.5" r="66.5" transform="translate(620 295)"/><circle class="a" cx="23" cy="23" r="23" transform="translate(403 45)"/><circle class="a" cx="22" cy="22" r="22" transform="translate(1782 206)"/><circle class="a" cx="59.5" cy="59.5" r="59.5" transform="translate(501 109)"/><circle class="a" cx="59.5" cy="59.5" r="59.5" transform="translate(0 317)"/></g><g transform="translate(-7960 3853)"><circle class="a" cx="72.5" cy="72.5" r="72.5" transform="translate(7995 -966)"/><circle class="a" cx="125" cy="125" r="125" transform="translate(8446 -816)"/><circle class="a" cx="59.5" cy="59.5" r="59.5" transform="translate(8191 -736)"/><circle class="a" cx="72.5" cy="72.5" r="72.5" transform="translate(8775 -989)"/><circle class="a" cx="50" cy="50" r="50" transform="translate(8284 -944)"/><circle class="a" cx="89.5" cy="89.5" r="89.5" transform="translate(9646 -738)"/><circle class="a" cx="171" cy="171" r="171" transform="translate(8867 -891)"/><circle class="a" cx="25" cy="25" r="25" transform="translate(8646 -916)"/><circle class="a" cx="73.5" cy="73.5" r="73.5" transform="translate(7908 -706)"/><circle class="a" cx="131.5" cy="131.5" r="131.5" transform="translate(9412 -986)"/><circle class="a" cx="66.5" cy="66.5" r="66.5" transform="translate(9160 -977)"/><circle class="a" cx="23" cy="23" r="23" transform="translate(9464 -640)"/><circle class="a" cx="22" cy="22" r="22" transform="translate(8087 -799)"/><circle class="a" cx="59.5" cy="59.5" r="59.5" transform="translate(9293 -777)"/><circle class="a" cx="59.5" cy="59.5" r="59.5" transform="translate(9794 -985)"/></g></g></svg>