<svg xmlns="http://www.w3.org/2000/svg" width="138.66" height="131.162" viewBox="0 0 138.66 131.162"><path d="M162.056-80.034q0,28.906-36.223,58.987Q100.63-.181,63.323,17.615a73.165,73.165,0,0,0,1.355-13.64A48.593,48.593,0,0,0,54.019-26.558Q44.082-37.578,34.055-48.508,23.4-61.877,23.4-77.776q0-15.627,10.524-25.7t26.241-10.072a37.74,37.74,0,0,1,19.963,5.6Q90.151-101.8,92.861-91.958q11.021-21.589,32.52-21.589a37.423,37.423,0,0,1,25.293,9.395Q162.056-94.307,162.056-80.034Z" transform="translate(-23.396 113.547)" fill="#fff"/></svg>