<svg xmlns="http://www.w3.org/2000/svg" width="2277.886" height="1118.505" viewBox="0 0 2277.886 1118.505"><defs><style>.a{fill:rgba(255,155,226,0.72);}</style></defs><g transform="translate(178.675 -4075.606)"><path class="a" d="M874.514,150.153q0,179.8-225.317,366.913-156.767,129.8-388.827,240.488a455.108,455.108,0,0,0,8.428-84.845q0-104.511-66.3-189.918Q140.687,414.24,78.317,346.252q-66.3-83.16-66.3-182.052,0-97.207,65.46-159.857T240.7-58.308A234.756,234.756,0,0,1,364.88-23.471q62.37,38.208,79.226,99.454,68.55-134.291,202.28-134.291,89.9,0,157.329,58.436Q874.513,61.374,874.514,150.153Z" transform="matrix(0.891, -0.454, 0.454, 0.891, 976.091, 4524.58)"/><path class="a" d="M862.5,607.4q0-179.8-225.317-366.913Q480.415,110.692,248.355,0a455.108,455.108,0,0,1,8.428,84.845q0,104.511-66.3,189.918Q128.673,343.314,66.3,411.3,0,494.462,0,593.355q0,97.207,65.46,159.857t163.229,62.651a234.756,234.756,0,0,0,124.177-34.837q62.37-38.208,79.226-99.454,68.55,134.291,202.28,134.291,89.9,0,157.329-58.436Q862.5,696.18,862.5,607.4Z" transform="matrix(-0.891, -0.454, 0.454, -0.891, 589.817, 5194.111)"/></g></svg>