<svg xmlns="http://www.w3.org/2000/svg" width="1279.029" height="1258.853" viewBox="0 0 1279.029 1258.853"><path d="M651.172,973.149,429.228,1159.126,378.347,874.02H88.855L233.6,623.127,11.657,436.273,283.6,337.144,234.479,52.038l271.947,99.129L651.172-99.727,796.8,151.167l271.947-99.129-50,285.106,271.947,99.129L1068.743,623.127,1213.489,874.02H924l-50.88,285.106Zm0-44.74q157.028,0,268-110.972t110.972-268q0-157.028-110.972-268t-268-110.972q-157.028,0-268,110.972t-110.972,268q0,157.028,111.411,268T651.172,928.409Z" transform="translate(-11.657 99.727)" fill="#f2e391"/></svg>