<svg xmlns="http://www.w3.org/2000/svg" width="138.353" height="170.671" viewBox="0 0 138.353 170.671"><path d="M152.758-36.532h-19.9q-13.755,15.758-29.781,23.1-5.075.4-7.479.4a58.8,58.8,0,0,1-15.491-2.4l-4.808,2.4H69.56q-19.631,0-19.631-14.022a16.066,16.066,0,0,1,.267-2.4q-14.423-1.2-14.423-13.78a36.3,36.3,0,0,1,.267-3.746,15.366,15.366,0,0,1-8.079-4.772A12.673,12.673,0,0,1,25.223-60.1a16.983,16.983,0,0,1,2.819-8.749q-7.093-7.771-7.093-17.282,0-10.986,11.886-17.684t31.517-6.7H67.69a71.406,71.406,0,0,0-7.345-23.237l-2.137-3.739q-6.944-13.221-6.944-20.432,0-19.9,20.967-24.839L76.1-183.7l6.677,29.647,24.706,26.308q2.537,2.938,8.814,11.351l3.739,4.941q6.01,8.146,8.48,9.949t7.946,1.8h15.625A73.4,73.4,0,0,1,159.3-68.183,82.6,82.6,0,0,1,152.758-36.532Zm-4.407-6.944a72.022,72.022,0,0,0,4.14-23.237,75.976,75.976,0,0,0-4.541-25.774q-16.827,0-21.1-2t-12.82-14.022q-3.472-4.674-10.283-13.221L76.9-150.313l-5.342-24.706q-13.355,4.541-13.355,17.094,0,6.544,4.541,14.156l1.736,2.938Q74.9-123.47,74.9-107.712l.134,3.739h-4.82q-21.294,0-32.008,4.222t-10.714,12.8a17.557,17.557,0,0,0,5.552,13.136A18.806,18.806,0,0,0,46.621-68.45H54.78L79.041-79.342q-5.475-8.338-14.69-8.338A23.22,23.22,0,0,0,58.208-86.6a79.421,79.421,0,0,0-8.814,3.227l-6.277.269-6.277-6.709,10.817-.134a54.355,54.355,0,0,1,8.547-2.938,30.378,30.378,0,0,1,7.078-.935q17.094,0,24.973,17.44l-4.541,2.151q8.413,4.1,12.954,14.3l-5.208,2.241q6.143,3.871,11.351,13.211l-8.28,3.94a34.527,34.527,0,0,1,10.951,14.022L89.057-19.171a35.648,35.648,0,0,0,6.811.8l5.208-.134a95.388,95.388,0,0,0,28.846-24.973Zm-60.9-19.364a20.438,20.438,0,0,0-11.218-7.9L56.211-61.906H49.173q-9.957,0-15.137-2.8A7.742,7.742,0,0,0,32.3-60.218q0,4.1,4.073,6.146t12.219,2.048H62.749Zm5.609,15.589Q92.4-48.059,92-48.6a23.357,23.357,0,0,0-7.612-5.928L63.951-45.48H42.316l-.4,1.717q0,7.9,15.625,7.9H67.557Zm2.8,18.064q-.935-1.2-1.469-1.87a29.679,29.679,0,0,0-6.41-6.544l-19.1,8.547H56.472v.8q0,8.948,13.054,8.948h4.44Z" transform="translate(-20.949 183.699)" fill="#f5b8e1"/></svg>